<svg xmlns="http://www.w3.org/2000/svg" viewBox="2 114 24 24"><path fill="#02B757" d="M14,138c-6.6,0-12-5.4-12-12c0-6.6,5.4-12,12-12s12,5.4,12,12C26,132.6,20.6,138,14,138z M14,116 c-5.5,0-10,4.5-10,10s4.5,10,10,10s10-4.5,10-10S19.5,116,14,116z"/><path fill="#02B757" d="M19,131h-5c-0.2,0-0.4-0.1-0.6-0.2L9,127.3v2.7c0,0.6-0.4,1-1,1s-1-0.4-1-1v-8c0-0.6,0.4-1,1-1h4 c1.1,0,1.7,1.1,1.7,3c0,0.6-0.1,1.2-0.2,1.7c-0.4,1.2-1.2,1.3-1.5,1.3h-0.1l2.5,2H19c0.3,0,0.5-0.5,0.5-1c0-0.4-0.1-1-0.5-1h-2 c-1.4,0-2.5-1.3-2.5-3c0-0.7,0.2-1.4,0.5-1.9c0.5-0.7,1.2-1.1,2-1.1h3c0.6,0,1,0.4,1,1s-0.4,1-1,1h-3c-0.1,0-0.2,0-0.3,0.2 s-0.2,0.5-0.2,0.8c0,0.4,0.2,1,0.5,1h2c1.4,0,2.5,1.3,2.5,3S20.4,131,19,131z M9,125h2.6c0.1-0.5,0.1-1.5,0-2H9V125z"/><path fill="#02B757" d="M18,122c-0.6,0-1-0.4-1-1v-1c0-0.6,0.4-1,1-1s1,0.4,1,1v1C19,121.6,18.6,122,18,122z"/><path fill="#02B757" d="M18,133c-0.6,0-1-0.4-1-1v-1c0-0.6,0.4-1,1-1s1,0.4,1,1v1C19,132.6,18.6,133,18,133z"/></svg>
