<svg xmlns="http://www.w3.org/2000/svg" viewBox="30 114 24 24"><path fill="#02B757" d="M37,123v2h2.6c0.1-0.5,0.1-1.5,0-2H37z"/><path fill="#02B757" d="M42,114c-6.6,0-12,5.4-12,12c0,6.6,5.4,12,12,12s12-5.4,12-12C54,119.4,48.6,114,42,114z M47,131v1 c0,0.6-0.4,1-1,1s-1-0.4-1-1v-1h-3c-0.2,0-0.4-0.1-0.6-0.2l-4.4-3.5v2.7c0,0.6-0.4,1-1,1s-1-0.4-1-1v-8c0-0.6,0.4-1,1-1h4 c1.1,0,1.7,1.1,1.7,3c0,0.6-0.1,1.2-0.2,1.7c-0.4,1.2-1.2,1.3-1.5,1.3h-0.1l2.5,2H47c0.3,0,0.5-0.5,0.5-1c0-0.4-0.1-1-0.5-1h-2 c-1.4,0-2.5-1.3-2.5-3c0-0.7,0.2-1.4,0.5-1.9c0.5-0.7,1.2-1.1,2-1.1v-1c0-0.6,0.4-1,1-1s1,0.4,1,1v1h1c0.6,0,1,0.4,1,1s-0.4,1-1,1 h-3c-0.1,0-0.2,0-0.3,0.2s-0.2,0.5-0.2,0.8c0,0.4,0.2,1,0.5,1h2c1.4,0,2.5,1.3,2.5,3S48.4,131,47,131z"/></svg>
