<svg xmlns="http://www.w3.org/2000/svg" viewBox="2 142 24 24"><path fill="#F6B702" d="M12,166c-0.3,0-0.5-0.1-0.7-0.3l-3-3C8.1,162.5,8,162.3,8,162v-1.6L7.6,160H6c-0.3,0-0.5-0.1-0.7-0.3l-3-3 c-0.4-0.4-0.4-1,0-1.4l13-13c0.4-0.4,1-0.4,1.4,0l3,3c0.2,0.2,0.3,0.4,0.3,0.7v1.6l0.4,0.4H22c0.3,0,0.5,0.1,0.7,0.3l3,3 c0.4,0.4,0.4,1,0,1.4l-13,13C12.5,165.9,12.3,166,12,166z M10,161.6l2,2L23.6,152l-2-2H20c-0.3,0-0.5-0.1-0.7-0.3l-1-1 c-0.2-0.2-0.3-0.4-0.3-0.7v-1.6l-2-2L4.4,156l2,2H8c0.3,0,0.5,0.1,0.7,0.3l1,1c0.2,0.2,0.3,0.4,0.3,0.7V161.6z"/><path fill="#F6B702" d="M10,155c-0.3,0-0.5-0.1-0.7-0.3c-0.4-0.4-0.4-1,0-1.4l4-4c0.4-0.4,1-0.4,1.4,0s0.4,1,0,1.4l-4,4 C10.5,154.9,10.3,155,10,155z"/><path fill="#F6B702" d="M16,157c-0.3,0-0.5-0.1-0.7-0.3l-4-4c-0.4-0.4-0.4-1,0-1.4s1-0.4,1.4,0l4,4c0.4,0.4,0.4,1,0,1.4 C16.5,156.9,16.3,157,16,157z"/></svg>
